<mxfile host="app.diagrams.net" agent="Mozilla/5.0 (Windows NT 10.0; Win64; x64) AppleWebKit/537.36 (KHTML, like Gecko) Chrome/130.0.0.0 Safari/537.36 Edg/130.0.0.0" version="24.8.2">
  <diagram name="Page-1" id="A_lH-L73e1HqDoKc8-JE">
    <mxGraphModel dx="925" dy="538" grid="1" gridSize="10" guides="1" tooltips="1" connect="1" arrows="1" fold="1" page="1" pageScale="1" pageWidth="850" pageHeight="1100" math="0" shadow="0">
      <root>
        <mxCell id="0" />
        <mxCell id="1" parent="0" />
        <mxCell id="1JPsz42seQXp7AYm6TcL-13" style="edgeStyle=orthogonalEdgeStyle;rounded=0;orthogonalLoop=1;jettySize=auto;html=1;exitX=0.5;exitY=1;exitDx=0;exitDy=0;entryX=0.5;entryY=0;entryDx=0;entryDy=0;" edge="1" parent="1" source="1JPsz42seQXp7AYm6TcL-1" target="1JPsz42seQXp7AYm6TcL-12">
          <mxGeometry relative="1" as="geometry" />
        </mxCell>
        <mxCell id="1JPsz42seQXp7AYm6TcL-1" value="start" style="ellipse;whiteSpace=wrap;html=1;" vertex="1" parent="1">
          <mxGeometry x="80" y="10" width="120" height="80" as="geometry" />
        </mxCell>
        <mxCell id="1JPsz42seQXp7AYm6TcL-15" style="edgeStyle=orthogonalEdgeStyle;rounded=0;orthogonalLoop=1;jettySize=auto;html=1;exitX=0.5;exitY=1;exitDx=0;exitDy=0;" edge="1" parent="1" source="1JPsz42seQXp7AYm6TcL-2" target="1JPsz42seQXp7AYm6TcL-4">
          <mxGeometry relative="1" as="geometry" />
        </mxCell>
        <mxCell id="1JPsz42seQXp7AYm6TcL-2" value="User" style="rounded=0;whiteSpace=wrap;html=1;" vertex="1" parent="1">
          <mxGeometry x="80" y="200" width="120" height="60" as="geometry" />
        </mxCell>
        <mxCell id="1JPsz42seQXp7AYm6TcL-16" style="edgeStyle=orthogonalEdgeStyle;rounded=0;orthogonalLoop=1;jettySize=auto;html=1;exitX=1;exitY=0.5;exitDx=0;exitDy=0;entryX=0;entryY=0.5;entryDx=0;entryDy=0;" edge="1" parent="1" source="1JPsz42seQXp7AYm6TcL-4" target="1JPsz42seQXp7AYm6TcL-5">
          <mxGeometry relative="1" as="geometry" />
        </mxCell>
        <mxCell id="1JPsz42seQXp7AYm6TcL-18" style="edgeStyle=orthogonalEdgeStyle;rounded=0;orthogonalLoop=1;jettySize=auto;html=1;exitX=0.5;exitY=1;exitDx=0;exitDy=0;entryX=0;entryY=0.25;entryDx=0;entryDy=0;" edge="1" parent="1" target="1JPsz42seQXp7AYm6TcL-8">
          <mxGeometry relative="1" as="geometry">
            <mxPoint x="130" y="380" as="sourcePoint" />
            <mxPoint x="140" y="600" as="targetPoint" />
            <Array as="points">
              <mxPoint x="130" y="600" />
              <mxPoint x="160" y="600" />
            </Array>
          </mxGeometry>
        </mxCell>
        <mxCell id="1JPsz42seQXp7AYm6TcL-4" value="login" style="rhombus;whiteSpace=wrap;html=1;" vertex="1" parent="1">
          <mxGeometry x="90" y="300" width="80" height="80" as="geometry" />
        </mxCell>
        <mxCell id="1JPsz42seQXp7AYm6TcL-5" value="Register" style="rhombus;whiteSpace=wrap;html=1;" vertex="1" parent="1">
          <mxGeometry x="310" y="300" width="80" height="80" as="geometry" />
        </mxCell>
        <mxCell id="1JPsz42seQXp7AYm6TcL-23" style="edgeStyle=orthogonalEdgeStyle;rounded=0;orthogonalLoop=1;jettySize=auto;html=1;exitX=0;exitY=0.5;exitDx=0;exitDy=0;" edge="1" parent="1" source="1JPsz42seQXp7AYm6TcL-6">
          <mxGeometry relative="1" as="geometry">
            <mxPoint x="130" y="440" as="targetPoint" />
          </mxGeometry>
        </mxCell>
        <mxCell id="1JPsz42seQXp7AYm6TcL-6" value="search product" style="rounded=0;whiteSpace=wrap;html=1;" vertex="1" parent="1">
          <mxGeometry x="160" y="400" width="120" height="60" as="geometry" />
        </mxCell>
        <mxCell id="1JPsz42seQXp7AYm6TcL-22" style="edgeStyle=orthogonalEdgeStyle;rounded=0;orthogonalLoop=1;jettySize=auto;html=1;exitX=0;exitY=0.75;exitDx=0;exitDy=0;" edge="1" parent="1" source="1JPsz42seQXp7AYm6TcL-7">
          <mxGeometry relative="1" as="geometry">
            <mxPoint x="130" y="550" as="targetPoint" />
          </mxGeometry>
        </mxCell>
        <mxCell id="1JPsz42seQXp7AYm6TcL-7" value="view&amp;nbsp;" style="rounded=0;whiteSpace=wrap;html=1;" vertex="1" parent="1">
          <mxGeometry x="160" y="500" width="120" height="60" as="geometry" />
        </mxCell>
        <mxCell id="1JPsz42seQXp7AYm6TcL-25" style="edgeStyle=orthogonalEdgeStyle;rounded=0;orthogonalLoop=1;jettySize=auto;html=1;exitX=0.25;exitY=1;exitDx=0;exitDy=0;entryX=0.5;entryY=0;entryDx=0;entryDy=0;" edge="1" parent="1" source="1JPsz42seQXp7AYm6TcL-8" target="1JPsz42seQXp7AYm6TcL-9">
          <mxGeometry relative="1" as="geometry" />
        </mxCell>
        <mxCell id="1JPsz42seQXp7AYm6TcL-8" value="Buy product and add to cart" style="rounded=0;whiteSpace=wrap;html=1;" vertex="1" parent="1">
          <mxGeometry x="160" y="590" width="120" height="60" as="geometry" />
        </mxCell>
        <mxCell id="1JPsz42seQXp7AYm6TcL-26" style="edgeStyle=orthogonalEdgeStyle;rounded=0;orthogonalLoop=1;jettySize=auto;html=1;exitX=0.5;exitY=1;exitDx=0;exitDy=0;entryX=0.5;entryY=0;entryDx=0;entryDy=0;" edge="1" parent="1" source="1JPsz42seQXp7AYm6TcL-9" target="1JPsz42seQXp7AYm6TcL-10">
          <mxGeometry relative="1" as="geometry" />
        </mxCell>
        <mxCell id="1JPsz42seQXp7AYm6TcL-9" value="payment" style="rhombus;whiteSpace=wrap;html=1;" vertex="1" parent="1">
          <mxGeometry x="150" y="700" width="80" height="90" as="geometry" />
        </mxCell>
        <mxCell id="1JPsz42seQXp7AYm6TcL-27" style="edgeStyle=orthogonalEdgeStyle;rounded=0;orthogonalLoop=1;jettySize=auto;html=1;exitX=0.5;exitY=1;exitDx=0;exitDy=0;entryX=0.5;entryY=0;entryDx=0;entryDy=0;" edge="1" parent="1" source="1JPsz42seQXp7AYm6TcL-10" target="1JPsz42seQXp7AYm6TcL-11">
          <mxGeometry relative="1" as="geometry" />
        </mxCell>
        <mxCell id="1JPsz42seQXp7AYm6TcL-10" value="order placed" style="rounded=0;whiteSpace=wrap;html=1;" vertex="1" parent="1">
          <mxGeometry x="130" y="830" width="120" height="60" as="geometry" />
        </mxCell>
        <mxCell id="1JPsz42seQXp7AYm6TcL-11" value="logout" style="rounded=0;whiteSpace=wrap;html=1;" vertex="1" parent="1">
          <mxGeometry x="130" y="950" width="120" height="60" as="geometry" />
        </mxCell>
        <mxCell id="1JPsz42seQXp7AYm6TcL-14" style="edgeStyle=orthogonalEdgeStyle;rounded=0;orthogonalLoop=1;jettySize=auto;html=1;exitX=0.5;exitY=1;exitDx=0;exitDy=0;" edge="1" parent="1" source="1JPsz42seQXp7AYm6TcL-12" target="1JPsz42seQXp7AYm6TcL-2">
          <mxGeometry relative="1" as="geometry" />
        </mxCell>
        <mxCell id="1JPsz42seQXp7AYm6TcL-12" value="Jpetstore" style="rounded=0;whiteSpace=wrap;html=1;" vertex="1" parent="1">
          <mxGeometry x="80" y="110" width="120" height="60" as="geometry" />
        </mxCell>
        <mxCell id="1JPsz42seQXp7AYm6TcL-29" value="No" style="text;html=1;align=center;verticalAlign=middle;whiteSpace=wrap;rounded=0;" vertex="1" parent="1">
          <mxGeometry x="210" y="310" width="60" height="30" as="geometry" />
        </mxCell>
        <mxCell id="1JPsz42seQXp7AYm6TcL-31" value="Yes" style="text;html=1;align=center;verticalAlign=middle;whiteSpace=wrap;rounded=0;" vertex="1" parent="1">
          <mxGeometry x="60" y="380" width="60" height="30" as="geometry" />
        </mxCell>
        <mxCell id="1JPsz42seQXp7AYm6TcL-32" value="Yes" style="text;html=1;align=center;verticalAlign=middle;whiteSpace=wrap;rounded=0;" vertex="1" parent="1">
          <mxGeometry x="200" y="790" width="60" height="30" as="geometry" />
        </mxCell>
        <mxCell id="1JPsz42seQXp7AYm6TcL-36" style="edgeStyle=orthogonalEdgeStyle;rounded=0;orthogonalLoop=1;jettySize=auto;html=1;exitX=1;exitY=0.5;exitDx=0;exitDy=0;entryX=0.886;entryY=0.997;entryDx=0;entryDy=0;entryPerimeter=0;" edge="1" parent="1" source="1JPsz42seQXp7AYm6TcL-9" target="1JPsz42seQXp7AYm6TcL-8">
          <mxGeometry relative="1" as="geometry" />
        </mxCell>
        <mxCell id="1JPsz42seQXp7AYm6TcL-37" value="No" style="text;html=1;align=center;verticalAlign=middle;whiteSpace=wrap;rounded=0;" vertex="1" parent="1">
          <mxGeometry x="290" y="680" width="60" height="30" as="geometry" />
        </mxCell>
      </root>
    </mxGraphModel>
  </diagram>
</mxfile>
